<mxfile host="drawio-plugin" modified="2021-10-19T15:52:05.246Z" agent="5.0 (Windows NT 6.2; Win64; x64) AppleWebKit/537.36 (KHTML, like Gecko) Chrome/84.0.4147.105 Safari/537.36" etag="QlWuic554bxBCdNp85c5" version="14.7.4" type="embed"><diagram id="cBYCK7sG08911_tAd0bc" name="home"><mxGraphModel dx="1630" dy="742" grid="1" gridSize="10" guides="1" tooltips="1" connect="1" arrows="1" fold="1" page="1" pageScale="1" pageWidth="850" pageHeight="1100" math="0" shadow="0"><root><mxCell id="0"/><mxCell id="1" parent="0"/><mxCell id="2" value="logo/home" style="ellipse;whiteSpace=wrap;html=1;aspect=fixed;" parent="1" vertex="1"><mxGeometry x="40" y="10" width="100" height="100" as="geometry"/></mxCell><mxCell id="4" value="Nav Bar" style="rounded=1;whiteSpace=wrap;html=1;" parent="1" vertex="1"><mxGeometry x="160" y="30" width="640" height="60" as="geometry"/></mxCell><mxCell id="9" value="" style="endArrow=none;html=1;entryX=0.25;entryY=0;entryDx=0;entryDy=0;exitX=0.25;exitY=1;exitDx=0;exitDy=0;" parent="1" edge="1"><mxGeometry width="50" height="50" relative="1" as="geometry"><mxPoint x="560.0000000000002" y="90" as="sourcePoint"/><mxPoint x="560" y="30" as="targetPoint"/></mxGeometry></mxCell><mxCell id="10" value="" style="endArrow=none;html=1;entryX=0.25;entryY=0;entryDx=0;entryDy=0;exitX=0.25;exitY=1;exitDx=0;exitDy=0;" parent="1" edge="1"><mxGeometry width="50" height="50" relative="1" as="geometry"><mxPoint x="640.0000000000002" y="90" as="sourcePoint"/><mxPoint x="640" y="30" as="targetPoint"/></mxGeometry></mxCell><mxCell id="12" value="" style="endArrow=none;html=1;entryX=0.25;entryY=0;entryDx=0;entryDy=0;exitX=0.25;exitY=1;exitDx=0;exitDy=0;" parent="1" edge="1"><mxGeometry width="50" height="50" relative="1" as="geometry"><mxPoint x="720.0000000000002" y="89.99999999999989" as="sourcePoint"/><mxPoint x="719.9999999999998" y="30" as="targetPoint"/></mxGeometry></mxCell><mxCell id="14" value="search" style="rounded=0;whiteSpace=wrap;html=1;fillColor=#ffe6cc;strokeColor=#d79b00;" parent="1" vertex="1"><mxGeometry x="170" y="40" width="400" height="40" as="geometry"/></mxCell><mxCell id="15" value="my account" style="rounded=0;whiteSpace=wrap;html=1;fillColor=#f8cecc;strokeColor=#b85450;" parent="1" vertex="1"><mxGeometry x="640" y="30" width="80" height="60" as="geometry"/></mxCell><mxCell id="16" value="cart/settings" style="rounded=0;whiteSpace=wrap;html=1;fillColor=#f8cecc;strokeColor=#b85450;" parent="1" vertex="1"><mxGeometry x="720" y="30" width="80" height="60" as="geometry"/></mxCell><mxCell id="17" value="product category" style="rounded=0;whiteSpace=wrap;html=1;" parent="1" vertex="1"><mxGeometry x="40" y="160" width="120" height="40" as="geometry"/></mxCell><mxCell id="18" value="product category" style="rounded=0;whiteSpace=wrap;html=1;" parent="1" vertex="1"><mxGeometry x="40" y="200" width="120" height="40" as="geometry"/></mxCell><mxCell id="19" value="product category" style="rounded=0;whiteSpace=wrap;html=1;" parent="1" vertex="1"><mxGeometry x="40" y="320" width="120" height="40" as="geometry"/></mxCell><mxCell id="20" value="product category" style="rounded=0;whiteSpace=wrap;html=1;" parent="1" vertex="1"><mxGeometry x="40" y="240" width="120" height="40" as="geometry"/></mxCell><mxCell id="21" value="product category" style="rounded=0;whiteSpace=wrap;html=1;" parent="1" vertex="1"><mxGeometry x="40" y="280" width="120" height="40" as="geometry"/></mxCell><mxCell id="23" value="images(carousel)" style="rounded=0;whiteSpace=wrap;html=1;fillColor=#dae8fc;strokeColor=#6c8ebf;" parent="1" vertex="1"><mxGeometry x="160" y="160" width="640" height="200" as="geometry"/></mxCell><mxCell id="24" value="best sellers" style="rounded=1;whiteSpace=wrap;html=1;" parent="1" vertex="1"><mxGeometry x="160" y="670" width="600" height="120" as="geometry"/></mxCell><mxCell id="25" value="recent products" style="rounded=1;whiteSpace=wrap;html=1;" parent="1" vertex="1"><mxGeometry x="160" y="530" width="600" height="120" as="geometry"/></mxCell><mxCell id="26" value="Sales" style="rounded=1;whiteSpace=wrap;html=1;" parent="1" vertex="1"><mxGeometry x="160" y="390" width="600" height="120" as="geometry"/></mxCell><mxCell id="27" value="terms of use/&lt;br&gt;rules/&lt;br&gt;advertising on the site/&lt;br&gt;admin info's" style="rounded=1;whiteSpace=wrap;html=1;" parent="1" vertex="1"><mxGeometry x="75" y="820" width="770" height="120" as="geometry"/></mxCell><mxCell id="28" value="login/register" style="rounded=0;whiteSpace=wrap;html=1;fillColor=#f8cecc;strokeColor=#b85450;" parent="1" vertex="1"><mxGeometry x="560" y="30" width="80" height="60" as="geometry"/></mxCell></root></mxGraphModel></diagram></mxfile>